<svg width="68" height="16" viewBox="0 0 68 16" fill="none" xmlns="http://www.w3.org/2000/svg">
<path d="M3.1 15V9.76C3.1 7.94 3.08 6.56 2.94 5.68L6.64 15H9L12.72 5.66C12.58 6.7 12.58 7.56 12.58 10.5V15H15.06V0.38H12.54L7.82 12.02L3.1 0.38H0.62V15H3.1ZM20.8758 15.26C22.4158 15.26 23.7558 14.56 24.1758 13.54L24.3558 15H26.4958V9C26.4958 6.26 24.8558 4.82 22.1958 4.82C19.5158 4.82 17.7558 6.22 17.7558 8.36H19.8358C19.8358 7.32 20.6358 6.72 22.0758 6.72C23.3158 6.72 24.1158 7.26 24.1158 8.6V8.82L21.1558 9.04C18.8158 9.22 17.4958 10.36 17.4958 12.18C17.4958 14.04 18.7758 15.26 20.8758 15.26ZM21.6758 13.42C20.5758 13.42 19.9758 12.98 19.9758 12.08C19.9758 11.28 20.5558 10.78 22.0758 10.64L24.1358 10.48V11C24.1358 12.52 23.1758 13.42 21.6758 13.42ZM31.3528 15V12.34L32.7928 10.84L35.3728 15H38.1728L34.4928 9.04L38.2528 5.12H35.1928L31.3528 9.26V0.12H28.9328V15H31.3528ZM43.6253 15.26C46.2053 15.26 48.0053 13.96 48.4253 11.8H46.1653C45.8853 12.74 45.0053 13.26 43.6653 13.26C42.0453 13.26 41.1253 12.38 40.9453 10.64L48.3853 10.62V9.88C48.3853 6.8 46.5053 4.82 43.5453 4.82C40.6453 4.82 38.6253 6.96 38.6253 10.06C38.6253 13.12 40.6853 15.26 43.6253 15.26ZM43.5653 6.82C45.0253 6.82 45.9653 7.72 45.9653 9.08H41.0053C41.2453 7.6 42.1253 6.82 43.5653 6.82ZM56.5381 5.08C56.1381 4.98 55.7981 4.94 55.4581 4.94C54.1381 4.94 53.1981 5.6 52.7781 6.58L52.6381 5.14H50.3381V15H52.7781V10.2C52.7781 8.28 53.8781 7.34 55.6381 7.34H56.5381V5.08ZM62.1097 7.76C64.1497 7.76 65.1097 8.84 65.1097 10.32C65.1097 11.94 64.0497 12.98 62.4497 12.98C60.8897 12.98 59.8497 12.02 59.8497 10.34H57.3297C57.3297 13.5 59.5497 15.26 62.4097 15.26C65.3697 15.26 67.7097 13.36 67.7097 10.36C67.7097 7.78 65.9697 6.14 63.7297 5.7L67.2897 2.42V0.38H58.0097V2.64H64.0897L60.3297 6.1V7.76H62.1097Z" fill="url(#paint0_angular_133_6)" fill-opacity="0.97"/>
<defs>
<radialGradient id="paint0_angular_133_6" cx="0" cy="0" r="1" gradientUnits="userSpaceOnUse" gradientTransform="translate(38 3) rotate(90) scale(9 39)">
<stop offset="0.308686" stop-color="#D946EF"/>
<stop offset="0.560694" stop-color="#3500FF"/>
<stop offset="0.953659" stop-color="#987DFF" stop-opacity="0.97"/>
<stop offset="0.992569" stop-color="#00BF45"/>
</radialGradient>
</defs>
</svg>
